<svg xmlns="http://www.w3.org/2000/svg" xmlns:xlink="http://www.w3.org/1999/xlink" viewBox="0,0,256,256" width="24px" height="24px" fill-rule="nonzero"><g fill-opacity="0.94902" fill="#ff7e15" fill-rule="nonzero" stroke="none" stroke-width="1" stroke-linecap="butt" stroke-linejoin="miter" stroke-miterlimit="10" stroke-dasharray="" stroke-dashoffset="0" font-family="none" font-weight="none" font-size="none" text-anchor="none" style="mix-blend-mode: normal"><g transform="scale(10.66667,10.66667)"><path d="M4,3c-1.1,0 -2,0.9 -2,2v10.79297c0,0.445 0.53852,0.66851 0.85352,0.35352l2.14648,-2.14648h9c1.1,0 2,-0.9 2,-2v-7c0,-1.1 -0.9,-2 -2,-2zM18,8v4c0,2.209 -1.791,4 -4,4h-6v1c0,1.1 0.9,2 2,2h9l2.14648,2.14648c0.315,0.315 0.85352,0.09148 0.85352,-0.35352v-10.79297c0,-1.1 -0.9,-2 -2,-2z"></path></g></g></svg>